<svg width="287" height="108" viewBox="0 0 287 108" fill="none" xmlns="http://www.w3.org/2000/svg">
<path d="M247.47 65.1918L230.539 77.9159C221.311 84.8506 208.128 78.267 208.128 66.7241V41.2759C208.128 29.733 221.311 23.1494 230.539 30.084L247.47 42.8081C254.922 48.4086 254.922 59.5914 247.47 65.1918Z" stroke="url(#paint0_linear_60_3)" stroke-width="6"/>
<mask id="path-2-outside-1_60_3" maskUnits="userSpaceOnUse" x="57.0454" y="30.7005" width="177.121" height="44.8374" fill="black">
<rect fill="white" x="57.0454" y="30.7005" width="177.121" height="44.8374"/>
<path d="M66.3358 65.7442C65.7499 65.7414 65.4578 65.4178 65.4596 64.7732L65.5246 41.4999C65.5264 40.8554 65.8203 40.5345 66.4062 40.5373L73.789 40.5722C77.7733 40.5911 80.4608 41.2776 81.8516 42.6319C83.2424 43.9744 83.9345 45.8175 83.9279 48.1613C83.9214 50.505 83.219 52.3474 81.8207 53.6885C80.4225 55.0178 77.7312 55.673 73.7468 55.6542L68.8602 55.631L68.8346 64.7892C68.8328 65.4337 68.5389 65.7546 67.953 65.7518L66.3358 65.7442ZM68.8682 52.7482L73.8076 52.7716C76.3857 52.7838 78.1445 52.4289 79.084 51.7067C80.0236 50.9729 80.4957 49.7857 80.5002 48.145C80.5048 46.5044 80.0394 45.3186 79.1039 44.5876C78.1685 43.8449 76.4117 43.4674 73.8336 43.4552L68.8942 43.4319L68.8682 52.7482ZM88.7477 65.8503C88.2203 65.8478 87.9574 65.5828 87.9589 65.0555L88.006 48.1806C88.0075 47.6532 88.2719 47.3908 88.7992 47.3933L90.2758 47.4003C90.8031 47.4028 91.0661 47.6677 91.0646 48.195L91.0587 50.3044L91.129 50.3047C91.6944 49.2527 92.3588 48.459 93.122 47.9235C93.8852 47.3881 94.8352 47.123 95.9719 47.1284C96.7219 47.132 97.249 47.1989 97.5533 47.3292C97.8226 47.436 97.9217 47.6122 97.8507 47.858L97.4424 49.2975C97.3832 49.5082 97.2306 49.5895 96.9847 49.5414C96.5747 49.4575 96.1881 49.4146 95.8249 49.4129C94.4538 49.4064 93.3212 50.0221 92.4271 51.2601C91.5331 52.4864 91.0831 54.1659 91.0771 56.2987L91.0526 65.0701C91.0511 65.5975 90.7867 65.8599 90.2594 65.8574L88.7477 65.8503ZM99.6718 56.6733C99.6799 53.7671 100.413 51.4561 101.871 49.7403C103.329 48.0246 105.411 47.1731 108.118 47.1859C110.368 47.1965 112.229 47.9964 113.701 49.5854C115.185 51.1627 115.922 53.6799 115.913 57.1369C115.911 57.6643 115.67 57.9268 115.19 57.9245L102.938 57.8665C103.131 60.1292 103.736 61.7082 104.753 62.6037C105.77 63.4874 106.923 63.9323 108.212 63.9384C109.571 63.9449 110.615 63.7213 111.343 63.2677C112.071 62.8141 112.605 62.3655 112.946 61.9218C113.323 61.4313 113.686 61.3393 114.037 61.6457L115.071 62.5471C115.34 62.7827 115.339 63.105 115.069 63.5138C114.845 63.8526 114.205 64.3945 113.148 65.1395C112.103 65.8846 110.456 66.2518 108.206 66.2412C105.276 66.2273 103.116 65.3557 101.727 63.6265C100.349 61.8973 99.6637 59.5796 99.6718 56.6733ZM102.874 55.5811L112.806 55.6281C112.763 53.9872 112.345 52.5497 111.552 51.3155C110.759 50.0695 109.588 49.4429 108.042 49.4355C106.682 49.4291 105.527 49.8807 104.575 50.7902C103.623 51.6881 103.056 53.285 102.874 55.5811ZM118.972 56.7647C118.979 54.2452 119.595 52.0332 120.819 50.1288C122.043 48.2127 123.827 47.2602 126.171 47.2713C127.518 47.2777 128.596 47.5054 129.403 47.9546C130.211 48.4037 130.935 49.0165 131.578 49.793L131.613 49.7932C131.59 49.4415 131.58 49.084 131.581 48.7208L131.603 40.8985C131.604 40.3712 131.868 40.1088 132.396 40.1113L133.908 40.1184C134.435 40.1209 134.698 40.3858 134.696 40.9132L134.628 65.2763C134.627 65.8037 134.362 66.0661 133.835 66.0636L132.359 66.0566C131.937 66.0546 131.709 65.7899 131.675 65.2624L131.574 63.8556L131.539 63.8555C130.892 64.6258 130.164 65.2318 129.354 65.6733C128.544 66.1147 127.465 66.3323 126.118 66.3259C123.774 66.3148 121.995 65.3513 120.782 63.4354C119.568 61.5078 118.965 59.2842 118.972 56.7647ZM122.242 56.7802C122.236 58.9364 122.6 60.6842 123.335 62.0237C124.081 63.3631 125.345 64.0371 127.126 64.0455C128.391 64.0515 129.441 63.6287 130.276 62.7772C131.122 61.914 131.548 60.6035 131.552 58.8457L131.564 54.8028C131.569 53.045 131.15 51.7363 130.309 50.8769C129.48 50.0057 128.432 49.5672 127.166 49.5612C125.385 49.5528 124.118 50.2147 123.364 51.5471C122.622 52.8796 122.248 54.6239 122.242 56.7802ZM140.427 66.0948C139.899 66.0923 139.637 65.8274 139.638 65.3001L139.685 48.4251C139.687 47.8978 139.951 47.6354 140.478 47.6379L141.99 47.645C142.517 47.6475 142.78 47.9124 142.779 48.4398L142.732 65.3147C142.73 65.842 142.466 66.1045 141.938 66.102L140.427 66.0948ZM140.488 44.298C139.96 44.2955 139.697 44.0306 139.699 43.5033L139.703 41.9916C139.705 41.4642 139.969 41.2018 140.496 41.2043L142.008 41.2114C142.535 41.2139 142.798 41.4788 142.797 42.0062L142.793 43.5179C142.791 44.0452 142.527 44.3077 141.999 44.3052L140.488 44.298ZM146.745 56.8961C146.753 54.1422 147.439 51.872 148.804 50.0855C150.18 48.2873 152.274 47.3948 155.086 47.4081C156.985 47.4171 158.431 47.7638 159.425 48.4482C160.431 49.121 161.156 49.8099 161.599 50.5152C161.844 50.9031 161.791 51.2133 161.438 51.4461L160.329 52.1615C159.977 52.4059 159.626 52.2461 159.276 51.6819C158.937 51.1412 158.458 50.6761 157.838 50.2864C157.23 49.8968 156.311 49.6991 155.08 49.6933C153.475 49.6857 152.231 50.2716 151.349 51.451C150.466 52.6305 150.022 54.4507 150.015 56.9116C150.008 59.3725 150.442 61.1968 151.318 62.3846C152.194 63.5723 153.434 64.17 155.04 64.1776C156.34 64.1838 157.337 63.9424 158.03 63.4535C158.723 62.9528 159.228 62.4103 159.546 61.8259C159.852 61.2765 160.199 61.12 160.585 61.3562L161.76 62.0649C162.111 62.2775 162.163 62.5941 161.916 63.0148C161.622 63.5173 160.952 64.2232 159.906 65.1323C158.872 66.0298 157.248 66.4732 155.033 66.4628C152.221 66.4495 150.131 65.5431 148.765 63.7436C147.411 61.9325 146.738 59.65 146.745 56.8961ZM164.922 44.0269C164.278 44.0239 163.956 43.7587 163.957 43.2313L163.962 41.7899C163.963 41.2626 164.286 41.0005 164.931 41.0035L183.528 41.0915C184.172 41.0946 184.494 41.3598 184.493 41.8871L184.489 43.3285C184.487 43.8558 184.164 44.118 183.52 44.1149L175.908 44.0789L175.849 65.2956C175.847 65.9402 175.553 66.261 174.967 66.2583L173.35 66.2506C172.764 66.2478 172.472 65.9242 172.474 65.2797L172.533 44.0629L164.922 44.0269ZM183.142 59.8633L183.173 48.6309C183.174 48.1036 183.439 47.8411 183.966 47.8436L185.478 47.8508C186.005 47.8533 186.268 48.1182 186.267 48.6456L186.238 59.0342C186.231 61.3311 186.608 62.7918 187.368 63.4165C188.128 64.0295 189.07 64.3387 190.195 64.344C191.672 64.351 192.804 63.9051 193.592 63.0065C194.379 62.0962 194.776 60.5394 194.783 58.3363L194.81 48.686C194.811 48.1586 195.075 47.8962 195.603 47.8987L197.114 47.9059C197.642 47.9084 197.905 48.1733 197.903 48.7006L197.856 65.5756C197.855 66.1029 197.59 66.3653 197.063 66.3628L195.586 66.3558C195.059 66.3533 194.796 66.0884 194.798 65.5611L194.801 64.1548L194.731 64.1545C193.967 64.9946 193.145 65.6177 192.265 66.0237C191.385 66.4297 190.312 66.6297 189.047 66.6237C186.996 66.614 185.497 66.0093 184.552 64.8095C183.606 63.5979 183.136 61.9492 183.142 59.8633ZM203.637 66.3939C203.11 66.3914 202.847 66.1265 202.848 65.5992L202.895 48.7242C202.897 48.1969 203.161 47.9345 203.689 47.937L205.165 47.944C205.692 47.9465 205.955 48.2114 205.954 48.7387L205.948 50.8481L206.018 50.8484C206.584 49.7964 207.248 49.0027 208.011 48.4672C208.775 47.9317 209.724 47.6667 210.861 47.6721C211.611 47.6756 212.138 47.7426 212.443 47.8729C212.712 47.9797 212.811 48.1559 212.74 48.4017L212.332 49.8412C212.273 50.0518 212.12 50.1331 211.874 50.0851C211.464 50.0011 211.077 49.9583 210.714 49.9566C209.343 49.9501 208.211 50.5658 207.316 51.8038C206.422 53.03 205.972 54.7096 205.966 56.8424L205.942 65.6138C205.94 66.1412 205.676 66.4036 205.149 66.4011L203.637 66.3939ZM214.668 50.3093C214.141 50.3068 213.878 50.1004 213.879 49.6903L213.882 48.6005C213.883 48.1903 214.147 47.9865 214.675 47.989L216.556 47.9979L216.563 45.3787C216.568 43.4217 217.1 42.0766 218.156 41.3433C219.213 40.5983 220.421 40.229 221.78 40.2354C222.589 40.2392 223.239 40.2833 223.731 40.3677C224.235 40.4521 224.826 40.6365 225.505 40.921C225.763 41.0277 225.838 41.2156 225.732 41.4846L225.183 42.8707C225.089 43.1046 224.884 43.1505 224.568 43.0084C224.31 42.89 223.994 42.783 223.619 42.6875C223.245 42.5802 222.84 42.5256 222.407 42.5236C221.434 42.5189 220.73 42.75 220.296 43.2167C219.872 43.6834 219.659 44.5789 219.655 45.9031L219.649 48.0125L222.866 48.0277C223.393 48.0302 223.657 48.2365 223.655 48.6467L223.652 49.7365C223.651 50.1467 223.387 50.3505 222.86 50.348L219.643 50.3328L219.6 65.6785C219.599 66.2058 219.334 66.4682 218.807 66.4657L217.295 66.4586C216.768 66.4561 216.505 66.1912 216.506 65.6638L216.549 50.3182L214.668 50.3093Z"/>
</mask>
<path d="M66.3358 65.7442C65.7499 65.7414 65.4578 65.4178 65.4596 64.7732L65.5246 41.4999C65.5264 40.8554 65.8203 40.5345 66.4062 40.5373L73.789 40.5722C77.7733 40.5911 80.4608 41.2776 81.8516 42.6319C83.2424 43.9744 83.9345 45.8175 83.9279 48.1613C83.9214 50.505 83.219 52.3474 81.8207 53.6885C80.4225 55.0178 77.7312 55.673 73.7468 55.6542L68.8602 55.631L68.8346 64.7892C68.8328 65.4337 68.5389 65.7546 67.953 65.7518L66.3358 65.7442ZM68.8682 52.7482L73.8076 52.7716C76.3857 52.7838 78.1445 52.4289 79.084 51.7067C80.0236 50.9729 80.4957 49.7857 80.5002 48.145C80.5048 46.5044 80.0394 45.3186 79.1039 44.5876C78.1685 43.8449 76.4117 43.4674 73.8336 43.4552L68.8942 43.4319L68.8682 52.7482ZM88.7477 65.8503C88.2203 65.8478 87.9574 65.5828 87.9589 65.0555L88.006 48.1806C88.0075 47.6532 88.2719 47.3908 88.7992 47.3933L90.2758 47.4003C90.8031 47.4028 91.0661 47.6677 91.0646 48.195L91.0587 50.3044L91.129 50.3047C91.6944 49.2527 92.3588 48.459 93.122 47.9235C93.8852 47.3881 94.8352 47.123 95.9719 47.1284C96.7219 47.132 97.249 47.1989 97.5533 47.3292C97.8226 47.436 97.9217 47.6122 97.8507 47.858L97.4424 49.2975C97.3832 49.5082 97.2306 49.5895 96.9847 49.5414C96.5747 49.4575 96.1881 49.4146 95.8249 49.4129C94.4538 49.4064 93.3212 50.0221 92.4271 51.2601C91.5331 52.4864 91.0831 54.1659 91.0771 56.2987L91.0526 65.0701C91.0511 65.5975 90.7867 65.8599 90.2594 65.8574L88.7477 65.8503ZM99.6718 56.6733C99.6799 53.7671 100.413 51.4561 101.871 49.7403C103.329 48.0246 105.411 47.1731 108.118 47.1859C110.368 47.1965 112.229 47.9964 113.701 49.5854C115.185 51.1627 115.922 53.6799 115.913 57.1369C115.911 57.6643 115.67 57.9268 115.19 57.9245L102.938 57.8665C103.131 60.1292 103.736 61.7082 104.753 62.6037C105.77 63.4874 106.923 63.9323 108.212 63.9384C109.571 63.9449 110.615 63.7213 111.343 63.2677C112.071 62.8141 112.605 62.3655 112.946 61.9218C113.323 61.4313 113.686 61.3393 114.037 61.6457L115.071 62.5471C115.34 62.7827 115.339 63.105 115.069 63.5138C114.845 63.8526 114.205 64.3945 113.148 65.1395C112.103 65.8846 110.456 66.2518 108.206 66.2412C105.276 66.2273 103.116 65.3557 101.727 63.6265C100.349 61.8973 99.6637 59.5796 99.6718 56.6733ZM102.874 55.5811L112.806 55.6281C112.763 53.9872 112.345 52.5497 111.552 51.3155C110.759 50.0695 109.588 49.4429 108.042 49.4355C106.682 49.4291 105.527 49.8807 104.575 50.7902C103.623 51.6881 103.056 53.285 102.874 55.5811ZM118.972 56.7647C118.979 54.2452 119.595 52.0332 120.819 50.1288C122.043 48.2127 123.827 47.2602 126.171 47.2713C127.518 47.2777 128.596 47.5054 129.403 47.9546C130.211 48.4037 130.935 49.0165 131.578 49.793L131.613 49.7932C131.59 49.4415 131.58 49.084 131.581 48.7208L131.603 40.8985C131.604 40.3712 131.868 40.1088 132.396 40.1113L133.908 40.1184C134.435 40.1209 134.698 40.3858 134.696 40.9132L134.628 65.2763C134.627 65.8037 134.362 66.0661 133.835 66.0636L132.359 66.0566C131.937 66.0546 131.709 65.7899 131.675 65.2624L131.574 63.8556L131.539 63.8555C130.892 64.6258 130.164 65.2318 129.354 65.6733C128.544 66.1147 127.465 66.3323 126.118 66.3259C123.774 66.3148 121.995 65.3513 120.782 63.4354C119.568 61.5078 118.965 59.2842 118.972 56.7647ZM122.242 56.7802C122.236 58.9364 122.6 60.6842 123.335 62.0237C124.081 63.3631 125.345 64.0371 127.126 64.0455C128.391 64.0515 129.441 63.6287 130.276 62.7772C131.122 61.914 131.548 60.6035 131.552 58.8457L131.564 54.8028C131.569 53.045 131.15 51.7363 130.309 50.8769C129.48 50.0057 128.432 49.5672 127.166 49.5612C125.385 49.5528 124.118 50.2147 123.364 51.5471C122.622 52.8796 122.248 54.6239 122.242 56.7802ZM140.427 66.0948C139.899 66.0923 139.637 65.8274 139.638 65.3001L139.685 48.4251C139.687 47.8978 139.951 47.6354 140.478 47.6379L141.99 47.645C142.517 47.6475 142.78 47.9124 142.779 48.4398L142.732 65.3147C142.73 65.842 142.466 66.1045 141.938 66.102L140.427 66.0948ZM140.488 44.298C139.96 44.2955 139.697 44.0306 139.699 43.5033L139.703 41.9916C139.705 41.4642 139.969 41.2018 140.496 41.2043L142.008 41.2114C142.535 41.2139 142.798 41.4788 142.797 42.0062L142.793 43.5179C142.791 44.0452 142.527 44.3077 141.999 44.3052L140.488 44.298ZM146.745 56.8961C146.753 54.1422 147.439 51.872 148.804 50.0855C150.18 48.2873 152.274 47.3948 155.086 47.4081C156.985 47.4171 158.431 47.7638 159.425 48.4482C160.431 49.121 161.156 49.8099 161.599 50.5152C161.844 50.9031 161.791 51.2133 161.438 51.4461L160.329 52.1615C159.977 52.4059 159.626 52.2461 159.276 51.6819C158.937 51.1412 158.458 50.6761 157.838 50.2864C157.23 49.8968 156.311 49.6991 155.08 49.6933C153.475 49.6857 152.231 50.2716 151.349 51.451C150.466 52.6305 150.022 54.4507 150.015 56.9116C150.008 59.3725 150.442 61.1968 151.318 62.3846C152.194 63.5723 153.434 64.17 155.04 64.1776C156.34 64.1838 157.337 63.9424 158.03 63.4535C158.723 62.9528 159.228 62.4103 159.546 61.8259C159.852 61.2765 160.199 61.12 160.585 61.3562L161.76 62.0649C162.111 62.2775 162.163 62.5941 161.916 63.0148C161.622 63.5173 160.952 64.2232 159.906 65.1323C158.872 66.0298 157.248 66.4732 155.033 66.4628C152.221 66.4495 150.131 65.5431 148.765 63.7436C147.411 61.9325 146.738 59.65 146.745 56.8961ZM164.922 44.0269C164.278 44.0239 163.956 43.7587 163.957 43.2313L163.962 41.7899C163.963 41.2626 164.286 41.0005 164.931 41.0035L183.528 41.0915C184.172 41.0946 184.494 41.3598 184.493 41.8871L184.489 43.3285C184.487 43.8558 184.164 44.118 183.52 44.1149L175.908 44.0789L175.849 65.2956C175.847 65.9402 175.553 66.261 174.967 66.2583L173.35 66.2506C172.764 66.2478 172.472 65.9242 172.474 65.2797L172.533 44.0629L164.922 44.0269ZM183.142 59.8633L183.173 48.6309C183.174 48.1036 183.439 47.8411 183.966 47.8436L185.478 47.8508C186.005 47.8533 186.268 48.1182 186.267 48.6456L186.238 59.0342C186.231 61.3311 186.608 62.7918 187.368 63.4165C188.128 64.0295 189.07 64.3387 190.195 64.344C191.672 64.351 192.804 63.9051 193.592 63.0065C194.379 62.0962 194.776 60.5394 194.783 58.3363L194.81 48.686C194.811 48.1586 195.075 47.8962 195.603 47.8987L197.114 47.9059C197.642 47.9084 197.905 48.1733 197.903 48.7006L197.856 65.5756C197.855 66.1029 197.59 66.3653 197.063 66.3628L195.586 66.3558C195.059 66.3533 194.796 66.0884 194.798 65.5611L194.801 64.1548L194.731 64.1545C193.967 64.9946 193.145 65.6177 192.265 66.0237C191.385 66.4297 190.312 66.6297 189.047 66.6237C186.996 66.614 185.497 66.0093 184.552 64.8095C183.606 63.5979 183.136 61.9492 183.142 59.8633ZM203.637 66.3939C203.11 66.3914 202.847 66.1265 202.848 65.5992L202.895 48.7242C202.897 48.1969 203.161 47.9345 203.689 47.937L205.165 47.944C205.692 47.9465 205.955 48.2114 205.954 48.7387L205.948 50.8481L206.018 50.8484C206.584 49.7964 207.248 49.0027 208.011 48.4672C208.775 47.9317 209.724 47.6667 210.861 47.6721C211.611 47.6756 212.138 47.7426 212.443 47.8729C212.712 47.9797 212.811 48.1559 212.74 48.4017L212.332 49.8412C212.273 50.0518 212.12 50.1331 211.874 50.0851C211.464 50.0011 211.077 49.9583 210.714 49.9566C209.343 49.9501 208.211 50.5658 207.316 51.8038C206.422 53.03 205.972 54.7096 205.966 56.8424L205.942 65.6138C205.94 66.1412 205.676 66.4036 205.149 66.4011L203.637 66.3939ZM214.668 50.3093C214.141 50.3068 213.878 50.1004 213.879 49.6903L213.882 48.6005C213.883 48.1903 214.147 47.9865 214.675 47.989L216.556 47.9979L216.563 45.3787C216.568 43.4217 217.1 42.0766 218.156 41.3433C219.213 40.5983 220.421 40.229 221.78 40.2354C222.589 40.2392 223.239 40.2833 223.731 40.3677C224.235 40.4521 224.826 40.6365 225.505 40.921C225.763 41.0277 225.838 41.2156 225.732 41.4846L225.183 42.8707C225.089 43.1046 224.884 43.1505 224.568 43.0084C224.31 42.89 223.994 42.783 223.619 42.6875C223.245 42.5802 222.84 42.5256 222.407 42.5236C221.434 42.5189 220.73 42.75 220.296 43.2167C219.872 43.6834 219.659 44.5789 219.655 45.9031L219.649 48.0125L222.866 48.0277C223.393 48.0302 223.657 48.2365 223.655 48.6467L223.652 49.7365C223.651 50.1467 223.387 50.3505 222.86 50.348L219.643 50.3328L219.6 65.6785C219.599 66.2058 219.334 66.4682 218.807 66.4657L217.295 66.4586C216.768 66.4561 216.505 66.1912 216.506 65.6638L216.549 50.3182L214.668 50.3093Z" fill="white"/>
<path d="M81.8516 42.6319L76.2762 48.3582L76.2888 48.3704L76.3013 48.3826L81.8516 42.6319ZM81.8207 53.6885L87.3387 59.4915L87.3513 59.4795L87.3639 59.4674L81.8207 53.6885ZM68.8602 55.631L68.8825 47.6311L60.8826 47.5932L60.8603 55.5932L68.8602 55.631ZM68.8682 52.7482L60.8683 52.7104L60.846 60.7104L68.8459 60.7482L68.8682 52.7482ZM79.084 51.7067L83.9669 58.0532L83.9915 58.0343L84.0159 58.0152L79.084 51.7067ZM79.1039 44.5876L74.1369 50.8493L74.1613 50.8686L74.1857 50.8877L79.1039 44.5876ZM68.8942 43.4319L68.9166 35.4319L60.9167 35.394L60.8943 43.394L68.8942 43.4319ZM66.3582 57.7442C67.5052 57.7497 69.7753 58.1109 71.6118 60.146C73.3172 62.0359 73.4616 64.0788 73.4595 64.8111L57.4597 64.7354C57.4559 66.1122 57.7454 68.6392 59.7428 70.8527C61.8714 73.2115 64.5805 73.736 66.3135 73.7442L66.3582 57.7442ZM73.4595 64.8111L73.5245 41.5378L57.5247 41.462L57.4597 64.7354L73.4595 64.8111ZM73.5245 41.5378C73.5225 42.27 73.3667 44.3116 71.6508 46.1852C69.803 48.2029 67.531 48.5427 66.3839 48.5372L66.4286 32.5373C64.6956 32.5291 61.9836 33.0279 59.842 35.3665C57.8322 37.561 57.5286 40.0853 57.5247 41.462L73.5245 41.5378ZM66.3839 48.5372L73.7666 48.5722L73.8113 32.5722L66.4286 32.5373L66.3839 48.5372ZM73.7666 48.5722C75.3624 48.5797 76.3283 48.7248 76.827 48.8522C77.3621 48.9889 76.9276 48.9925 76.2762 48.3582L87.4269 36.9055C83.604 33.1829 78.0066 32.5921 73.8113 32.5722L73.7666 48.5722ZM76.3013 48.3826C76.2244 48.3083 76.1434 48.213 76.0705 48.1015C75.9979 47.9905 75.9517 47.8914 75.9251 47.8208C75.8721 47.6797 75.9291 47.7394 75.928 48.1234L91.9279 48.1991C91.9391 44.1745 90.6907 40.0559 87.4018 36.8812L76.3013 48.3826ZM75.928 48.1234C75.927 48.5068 75.8699 48.5709 75.9204 48.4383C75.9457 48.3721 75.9899 48.2784 76.0592 48.1734C76.1288 48.0679 76.2056 47.9784 76.2775 47.9095L87.3639 59.4674C90.6449 56.3208 91.9166 52.2263 91.9279 48.1991L75.928 48.1234ZM76.3027 47.8854C76.9601 47.2604 77.3917 47.271 76.8469 47.4037C76.3411 47.5268 75.3686 47.6618 73.7692 47.6542L73.7245 63.6541C76.1094 63.6654 78.4747 63.4822 80.6602 62.9501C82.8067 62.4275 85.283 61.4459 87.3387 59.4915L76.3027 47.8854ZM73.7692 47.6542L68.8825 47.6311L68.8378 63.631L73.7245 63.6541L73.7692 47.6542ZM60.8603 55.5932L60.8347 64.7514L76.8345 64.8271L76.8601 55.6689L60.8603 55.5932ZM60.8347 64.7514C60.8367 64.0191 60.9925 61.9775 62.7084 60.1039C64.5562 58.0862 66.8283 57.7464 67.9753 57.7519L67.9307 73.7518C69.6637 73.76 72.3756 73.2612 74.5173 70.9226C76.527 68.7281 76.8307 66.2039 76.8345 64.8271L60.8347 64.7514ZM67.9753 57.7519L66.3582 57.7442L66.3135 73.7442L67.9307 73.7518L67.9753 57.7519ZM68.8459 60.7482L73.7853 60.7716L73.83 44.7716L68.8906 44.7483L68.8459 60.7482ZM73.7853 60.7716C75.4044 60.7792 77.07 60.677 78.6575 60.3566C80.1732 60.0507 82.1625 59.4401 83.9669 58.0532L74.2012 45.3602C74.6618 45.0062 75.0504 44.8274 75.2476 44.7487C75.4468 44.6692 75.5359 44.6578 75.4631 44.6725C75.3951 44.6862 75.2288 44.7141 74.9419 44.7367C74.6581 44.7592 74.291 44.7738 73.83 44.7716L73.7853 60.7716ZM84.0159 58.0152C87.5428 55.2605 88.4915 51.2982 88.5002 48.1829L72.5003 48.1072C72.5001 48.1951 72.4849 47.8591 72.7081 47.2976C72.9567 46.6725 73.4264 45.9651 74.1521 45.3982L84.0159 58.0152ZM88.5002 48.1829C88.5088 45.077 87.5855 41.0721 84.0221 38.2875L74.1857 50.8877C73.4399 50.3049 72.9601 49.5767 72.7085 48.9357C72.483 48.3611 72.5006 48.0176 72.5003 48.1072L88.5002 48.1829ZM84.0709 38.326C82.2729 36.8984 80.278 36.2542 78.7508 35.9261C77.1547 35.5831 75.4806 35.463 73.856 35.4553L73.8113 51.4552C74.2693 51.4574 74.6327 51.4757 74.9123 51.5008C75.195 51.5262 75.3562 51.5555 75.4188 51.5689C75.4861 51.5834 75.3913 51.5693 75.1874 51.4844C74.9848 51.4001 74.5949 51.2129 74.1369 50.8493L84.0709 38.326ZM73.856 35.4553L68.9166 35.4319L68.8719 51.4318L73.8113 51.4552L73.856 35.4553ZM60.8943 43.394L60.8683 52.7104L76.8681 52.7861L76.8942 43.4697L60.8943 43.394ZM91.0587 50.3044L83.0588 50.2665L83.0364 58.2665L91.0363 58.3044L91.0587 50.3044ZM91.129 50.3047L91.1067 58.3047L95.9066 58.3274L98.1772 54.1028L91.129 50.3047ZM97.5533 47.3292L94.4157 54.6822L94.516 54.7252L94.6174 54.7654L97.5533 47.3292ZM97.8507 47.858L90.1647 45.6238L90.1594 45.6424L90.1541 45.661L97.8507 47.858ZM97.4424 49.2975L89.7458 47.1005L89.743 47.1102L89.7403 47.1199L97.4424 49.2975ZM96.9847 49.5414L95.3938 57.3786L95.4298 57.386L95.4658 57.393L96.9847 49.5414ZM92.4271 51.2601L98.8945 55.9814L98.9051 55.9669L98.9156 55.9524L92.4271 51.2601ZM88.77 57.8503C89.7395 57.8549 91.9353 58.1131 93.8276 60.0196C95.7199 61.9262 95.9615 64.1239 95.9588 65.0934L79.959 65.0176C79.9548 66.5145 80.3272 69.1083 82.4824 71.2798C84.6376 73.4512 87.2285 73.8431 88.7253 73.8502L88.77 57.8503ZM95.9588 65.0934L96.0059 48.2184L80.0061 48.1427L79.959 65.0176L95.9588 65.0934ZM96.0059 48.2184C96.0032 49.1879 95.7493 51.3832 93.8464 53.2718C91.9435 55.1605 89.7464 55.3978 88.7769 55.3933L88.8216 39.3933C87.3248 39.3862 84.7317 39.7536 82.5644 41.9046C80.3972 44.0557 80.0103 46.6459 80.0061 48.1427L96.0059 48.2184ZM88.7769 55.3933L90.2534 55.4002L90.2981 39.4003L88.8216 39.3933L88.7769 55.3933ZM90.2534 55.4002C89.284 55.3957 87.0882 55.1375 85.1959 53.2309C83.3036 51.3243 83.062 49.1267 83.0647 48.1572L99.0645 48.2329C99.0687 46.7361 98.6963 44.1423 96.5411 41.9708C94.3859 39.7993 91.7949 39.4074 90.2981 39.4003L90.2534 55.4002ZM83.0647 48.1572L83.0588 50.2665L99.0586 50.3423L99.0645 48.2329L83.0647 48.1572ZM91.0363 58.3044L91.1067 58.3047L91.1513 42.3048L91.081 42.3044L91.0363 58.3044ZM98.1772 54.1028C98.3139 53.8485 98.2257 54.1243 97.725 54.4755L88.5189 41.3715C86.4918 42.7937 85.075 44.6569 84.0808 46.5066L98.1772 54.1028ZM97.725 54.4755C96.8622 55.0809 96.1011 55.1291 95.9495 55.1284L95.9942 39.1284C93.5692 39.117 90.9082 39.6952 88.5189 41.3715L97.725 54.4755ZM95.9495 55.1284C96.1207 55.1292 96.0961 55.1378 95.937 55.1176C95.8512 55.1067 95.6809 55.0818 95.4507 55.0271C95.2294 54.9746 94.8624 54.8736 94.4157 54.6822L100.691 39.9763C98.7685 39.1528 96.7963 39.1322 95.9942 39.1284L95.9495 55.1284ZM94.6174 54.7654C93.7652 54.4275 92.029 53.534 90.8585 51.4526C89.5926 49.2015 89.7725 46.9814 90.1647 45.6238L105.537 50.0922C106 48.4888 106.166 46.0577 104.801 43.6303C103.531 41.3727 101.611 40.3377 100.489 39.8931L94.6174 54.7654ZM90.1541 45.661L89.7458 47.1005L105.139 51.4945L105.547 50.055L90.1541 45.661ZM89.7403 47.1199C90.1342 45.7176 91.1857 43.6937 93.5105 42.4548C95.6417 41.319 97.6089 41.5151 98.5035 41.6898L95.4658 57.393C96.6063 57.6158 98.7729 57.7953 101.057 56.5782C103.534 55.2579 104.691 53.088 105.144 51.4751L89.7403 47.1199ZM98.5755 41.7042C97.725 41.53 96.8093 41.4175 95.8472 41.4129L95.8025 57.4129C95.5669 57.4117 95.4244 57.3849 95.3938 57.3786L98.5755 41.7042ZM95.8472 41.4129C91.5726 41.3927 88.1403 43.5193 85.9386 46.5679L98.9156 55.9524C98.7912 56.1246 98.4385 56.5413 97.7787 56.9C97.0888 57.2751 96.3762 57.4156 95.8025 57.4129L95.8472 41.4129ZM85.9597 46.5388C83.7455 49.5757 83.086 53.1043 83.0772 56.2608L99.077 56.3365C99.0785 55.812 99.1354 55.566 99.1467 55.5239C99.1539 55.4971 99.1038 55.6943 98.8945 55.9814L85.9597 46.5388ZM83.0772 56.2608L83.0527 65.0323L99.0525 65.108L99.077 56.3365L83.0772 56.2608ZM83.0527 65.0323C83.0554 64.0628 83.3093 61.8675 85.2122 59.9789C87.1151 58.0902 89.3123 57.8528 90.2817 57.8574L90.237 73.8574C91.7339 73.8645 94.3269 73.4971 96.4942 71.3461C98.6615 69.195 99.0483 66.6048 99.0525 65.108L83.0527 65.0323ZM90.2817 57.8574L88.77 57.8503L88.7253 73.8502L90.237 73.8574L90.2817 57.8574ZM113.701 49.5854L107.838 55.0162L107.859 55.0387L107.88 55.061L113.701 49.5854ZM102.938 57.8665L102.96 49.8666L94.2248 49.8252L94.967 58.5308L102.938 57.8665ZM104.753 62.6037L99.473 68.6037L99.4927 68.621L99.5125 68.6382L104.753 62.6037ZM112.946 61.9218L119.292 66.8052L119.296 66.8002L112.946 61.9218ZM114.037 61.6457L108.781 67.6664L108.788 67.6732L114.037 61.6457ZM115.071 62.5471L120.338 56.5351L120.329 56.5273L120.32 56.5196L115.071 62.5471ZM115.069 63.5138L108.395 59.0888L108.389 59.098L115.069 63.5138ZM113.148 65.1395L108.53 58.598L108.513 58.6102L108.496 58.6224L113.148 65.1395ZM101.727 63.6265L95.474 68.6049L95.4843 68.6178L95.4946 68.6306L101.727 63.6265ZM102.874 55.5811L94.8992 54.9329L94.2162 63.5402L102.852 63.581L102.874 55.5811ZM112.806 55.6281L112.783 63.628L121.015 63.667L120.803 55.4374L112.806 55.6281ZM111.552 51.3155L104.806 55.6032L104.816 55.6178L104.825 55.6323L111.552 51.3155ZM104.575 50.7902L110.071 56.6145L110.089 56.5968L110.108 56.579L104.575 50.7902ZM107.672 56.7112C107.674 55.9151 107.776 55.4383 107.854 55.1926C107.892 55.0725 107.925 55.0042 107.942 54.9728C107.959 54.9426 107.968 54.9311 107.971 54.9275L95.7703 44.5532C92.7733 48.0803 91.6837 52.3987 91.6719 56.6355L107.672 56.7112ZM107.971 54.9275C107.936 54.969 107.874 55.0315 107.786 55.0952C107.698 55.159 107.618 55.1993 107.566 55.2207C107.46 55.2639 107.585 55.1834 108.096 55.1859L108.141 39.1859C103.598 39.1644 99.0614 40.68 95.7703 44.5532L107.971 54.9275ZM108.096 55.1859C108.189 55.1863 108.219 55.1945 108.2 55.1907C108.179 55.1866 108.126 55.1735 108.055 55.1428C107.983 55.1119 107.92 55.075 107.873 55.0411C107.826 55.008 107.816 54.9929 107.838 55.0162L119.565 44.1545C116.518 40.8657 112.509 39.2066 108.141 39.1859L108.096 55.1859ZM107.88 55.061C107.592 54.7555 107.602 54.59 107.69 54.8908C107.786 55.2193 107.916 55.91 107.913 57.0991L123.913 57.1748C123.925 52.8396 123.048 47.8567 119.523 44.1097L107.88 55.061ZM107.913 57.0991C107.915 56.3044 108.086 54.2162 109.832 52.3134C111.708 50.2701 114.017 49.9189 115.212 49.9246L115.167 65.9245C116.843 65.9324 119.513 65.4511 121.629 63.1452C123.617 60.9799 123.909 58.4968 123.913 57.1748L107.913 57.0991ZM115.212 49.9246L102.96 49.8666L102.916 65.8665L115.167 65.9245L115.212 49.9246ZM94.967 58.5308C95.224 61.5452 96.1405 65.6696 99.473 68.6037L110.033 56.6037C110.711 57.2007 110.957 57.7713 111.006 57.8983C111.046 58.0037 110.962 57.8244 110.909 57.2023L94.967 58.5308ZM99.5125 68.6382C101.909 70.7201 104.893 71.9228 108.19 71.9384L108.234 55.9385C108.52 55.9398 108.877 55.994 109.248 56.1372C109.614 56.2784 109.863 56.4556 109.993 56.5692L99.5125 68.6382ZM108.19 71.9384C110.253 71.9482 113.035 71.6479 115.583 70.0595L107.102 56.4759C107.687 56.1115 108.154 55.9893 108.324 55.9529C108.493 55.9166 108.486 55.9397 108.234 55.9385L108.19 71.9384ZM115.583 70.0595C116.736 69.3411 118.145 68.2975 119.292 66.8052L106.6 57.0383C106.856 56.7061 107.067 56.5198 107.139 56.4595C107.215 56.3954 107.217 56.4045 107.102 56.4759L115.583 70.0595ZM119.296 66.8002C119.044 67.1286 117.849 68.6404 115.479 69.2406C112.493 69.9965 110.05 68.7753 108.781 67.6664L119.293 55.625C117.673 54.2097 114.873 52.8813 111.524 53.7293C108.79 54.4215 107.225 56.2245 106.596 57.0433L119.296 66.8002ZM108.788 67.6732L109.823 68.5746L120.32 56.5196L119.285 55.6182L108.788 67.6732ZM109.805 68.559C108.408 67.3349 107.266 65.3493 107.272 62.9276C107.278 60.9097 108.089 59.5516 108.395 59.0888L121.742 67.9389C122.319 67.0672 123.266 65.3436 123.272 63.0033C123.28 60.2594 122.003 57.9949 120.338 56.5351L109.805 68.559ZM108.389 59.098C108.568 58.8277 108.729 58.6242 108.84 58.4931C108.953 58.3583 109.047 58.2592 109.106 58.1985C109.22 58.0831 109.279 58.0353 109.245 58.064C109.219 58.0867 109.148 58.1446 109.021 58.241C108.896 58.3357 108.734 58.4542 108.53 58.598L117.766 71.6811C118.396 71.2371 119.028 70.7655 119.596 70.2848C120.016 69.9294 120.974 69.1019 121.748 67.9297L108.389 59.098ZM108.496 58.6224C108.789 58.4134 109.035 58.2946 109.185 58.2326C109.333 58.1713 109.406 58.158 109.374 58.1651C109.343 58.1721 109.235 58.1933 109.036 58.2115C108.838 58.2296 108.571 58.2428 108.228 58.2412L108.183 74.2411C110.993 74.2544 114.702 73.8659 117.801 71.6567L108.496 58.6224ZM108.228 58.2412C107.525 58.2379 107.3 58.131 107.37 58.1592C107.411 58.1758 107.509 58.2217 107.633 58.3127C107.759 58.4049 107.871 58.5134 107.959 58.6224L95.4946 68.6306C98.8531 72.8097 103.673 74.2198 108.183 74.2411L108.228 58.2412ZM107.979 58.6481C107.978 58.6473 107.976 58.6441 107.972 58.6373C107.967 58.6305 107.959 58.6176 107.949 58.597C107.928 58.5568 107.892 58.4753 107.851 58.3377C107.768 58.0559 107.669 57.5408 107.672 56.7112L91.6719 56.6355C91.6603 60.7845 92.6452 65.0551 95.474 68.6049L107.979 58.6481ZM102.852 63.581L112.783 63.628L112.828 47.6281L102.896 47.5811L102.852 63.581ZM120.803 55.4374C120.727 52.5114 119.958 49.6098 118.279 46.9986L104.825 55.6323C104.813 55.6132 104.801 55.5918 104.792 55.5709C104.782 55.5501 104.779 55.538 104.779 55.5386C104.779 55.5396 104.785 55.5597 104.791 55.6033C104.798 55.6473 104.806 55.7178 104.808 55.8187L120.803 55.4374ZM118.298 47.0277C115.956 43.351 112.178 41.455 108.064 41.4356L108.019 57.4355C107.704 57.434 107.059 57.3609 106.313 56.9618C105.552 56.5542 105.064 56.0079 104.806 55.6032L118.298 47.0277ZM108.064 41.4356C104.708 41.4197 101.54 42.6141 99.042 45.0014L110.108 56.579C109.878 56.7987 109.53 57.0453 109.08 57.2215C108.634 57.3958 108.252 57.4366 108.019 57.4355L108.064 41.4356ZM99.0793 44.966C95.9345 47.9328 95.1299 52.0256 94.8992 54.9329L110.849 56.2293C110.875 55.9042 110.909 55.671 110.939 55.5166C110.969 55.3607 110.989 55.3139 110.975 55.3509C110.956 55.405 110.745 55.9779 110.071 56.6145L99.0793 44.966ZM120.819 50.1288L127.551 54.4638L127.557 54.4544L127.563 54.4451L120.819 50.1288ZM131.578 49.793L125.418 54.8854L127.808 57.7753L131.555 57.793L131.578 49.793ZM131.613 49.7932L131.591 57.7932L140.142 57.8336L139.597 49.2988L131.613 49.7932ZM131.675 65.2624L139.659 64.768L139.657 64.7349L139.654 64.7018L131.675 65.2624ZM131.574 63.8556L139.553 63.2951L139.018 55.8908L131.596 55.8557L131.574 63.8556ZM131.539 63.8555L131.561 55.8555L127.814 55.8378L125.407 58.7049L131.539 63.8555ZM120.782 63.4354L114.014 67.6878L114.02 67.6971L114.026 67.7065L120.782 63.4354ZM123.335 62.0237L116.322 65.86L116.335 65.8835L116.348 65.9069L123.335 62.0237ZM130.276 62.7772L124.558 57.1713L124.557 57.1723L130.276 62.7772ZM130.309 50.8769L124.521 56.3882L124.559 56.4281L124.598 56.4676L130.309 50.8769ZM123.364 51.5471L116.399 47.5979L116.386 47.6211L116.373 47.6445L123.364 51.5471ZM126.972 56.8025C126.976 55.6313 127.241 54.946 127.551 54.4638L114.087 45.7939C111.949 49.1204 110.983 52.859 110.972 56.7268L126.972 56.8025ZM127.563 54.4451C127.532 54.4944 127.313 54.7906 126.854 55.0361C126.404 55.2761 126.092 55.271 126.148 55.2713L126.193 39.2713C121.209 39.2478 116.825 41.5073 114.075 45.8125L127.563 54.4451ZM126.148 55.2713C126.395 55.2724 126.446 55.2942 126.35 55.2739C126.251 55.253 125.941 55.1755 125.524 54.9439L133.282 40.9653C130.875 39.6262 128.312 39.2814 126.193 39.2713L126.148 55.2713ZM125.524 54.9439C125.462 54.9091 125.418 54.8761 125.394 54.8562C125.372 54.8372 125.381 54.8414 125.418 54.8854L137.738 44.7006C136.517 43.2254 135.037 41.9416 133.282 40.9653L125.524 54.9439ZM131.555 57.793L131.591 57.7932L131.635 41.7932L131.6 41.793L131.555 57.793ZM139.597 49.2988C139.586 49.1297 139.58 48.9498 139.581 48.7586L123.581 48.6829C123.579 49.2182 123.595 49.7533 123.629 50.2876L139.597 49.2988ZM139.581 48.7586L139.603 40.9364L123.603 40.8607L123.581 48.6829L139.581 48.7586ZM139.603 40.9364C139.6 41.9059 139.346 44.1012 137.443 45.9898C135.54 47.8784 133.343 48.1158 132.373 48.1112L132.418 32.1113C130.921 32.1042 128.328 32.4716 126.161 34.6226C123.994 36.7736 123.607 39.3638 123.603 40.8607L139.603 40.9364ZM132.373 48.1112L133.885 48.1184L133.93 32.1184L132.418 32.1113L132.373 48.1112ZM133.885 48.1184C132.916 48.1138 130.72 47.8556 128.828 45.949C126.935 44.0425 126.694 41.8448 126.696 40.8753L142.696 40.951C142.7 39.4542 142.328 36.8604 140.173 34.6889C138.018 32.5174 135.427 32.1255 133.93 32.1184L133.885 48.1184ZM126.696 40.8753L126.628 65.2385L142.628 65.3142L142.696 40.951L126.696 40.8753ZM126.628 65.2385C126.631 64.269 126.885 62.0737 128.788 60.1851C130.691 58.2965 132.888 58.0591 133.857 58.0636L133.813 74.0636C135.31 74.0707 137.903 73.7033 140.07 71.5523C142.237 69.4012 142.624 66.811 142.628 65.3142L126.628 65.2385ZM133.857 58.0636L132.381 58.0567L132.336 74.0566L133.813 74.0636L133.857 58.0636ZM132.381 58.0567C133.96 58.0641 136.216 58.6516 137.931 60.6458C139.407 62.3604 139.619 64.1413 139.659 64.768L123.692 65.7567C123.765 66.911 124.108 69.088 125.811 71.0674C127.755 73.3263 130.335 74.0471 132.336 74.0566L132.381 58.0567ZM139.654 64.7018L139.553 63.2951L123.594 64.4162L123.696 65.8229L139.654 64.7018ZM131.596 55.8557L131.561 55.8555L131.516 71.8554L131.551 71.8556L131.596 55.8557ZM125.407 58.7049C125.37 58.7486 125.361 58.7527 125.384 58.7339C125.407 58.7142 125.451 58.6816 125.514 58.6474L133.193 72.6991C134.954 71.7394 136.441 70.4696 137.67 69.006L125.407 58.7049ZM125.514 58.6474C125.932 58.4198 126.242 58.3452 126.341 58.3253C126.437 58.3059 126.386 58.3271 126.14 58.326L126.095 74.3259C128.214 74.3359 130.779 74.0153 133.193 72.6991L125.514 58.6474ZM126.14 58.326C126.075 58.3257 126.381 58.3216 126.826 58.5624C127.282 58.8095 127.502 59.1073 127.538 59.1643L114.026 67.7065C116.762 72.0268 121.133 74.3024 126.095 74.3259L126.14 58.326ZM127.55 59.1831C127.231 58.6759 126.969 57.973 126.972 56.8025L110.972 56.7268C110.962 60.5954 111.906 64.3397 114.014 67.6878L127.55 59.1831ZM114.242 56.7423C114.234 59.725 114.722 62.9432 116.322 65.86L130.347 58.1873C130.419 58.3187 130.389 58.3165 130.342 58.0906C130.294 57.8599 130.24 57.4507 130.242 56.818L114.242 56.7423ZM116.348 65.9069C118.758 70.2328 122.994 72.026 127.104 72.0455L127.148 56.0456C127.246 56.046 127.831 56.0684 128.596 56.4764C129.421 56.9165 130 57.5629 130.321 58.1404L116.348 65.9069ZM127.104 72.0455C130.384 72.061 133.551 70.8761 135.995 68.3821L124.557 57.1723C124.868 56.8542 125.311 56.5331 125.862 56.311C126.404 56.0929 126.867 56.0442 127.148 56.0456L127.104 72.0455ZM135.994 68.3832C138.844 65.4757 139.544 61.7848 139.552 58.8836L123.553 58.8079C123.552 59.0727 123.517 58.9802 123.62 58.6628C123.735 58.3094 124.005 57.7356 124.558 57.1713L135.994 68.3832ZM139.552 58.8836L139.564 54.8406L123.564 54.7649L123.553 58.8079L139.552 58.8836ZM139.564 54.8406C139.572 51.9496 138.896 48.224 136.02 45.2861L124.598 56.4676C124.027 55.8842 123.751 55.2901 123.634 54.9249C123.529 54.597 123.565 54.4988 123.564 54.7649L139.564 54.8406ZM136.097 45.3656C133.676 42.8234 130.504 41.5769 127.189 41.5612L127.144 57.5612C126.849 57.5598 126.374 57.5034 125.824 57.2733C125.266 57.0394 124.825 56.7077 124.521 56.3882L136.097 45.3656ZM127.189 41.5612C123.079 41.5418 118.833 43.2949 116.399 47.5979L130.329 55.4964C130.004 56.0708 129.422 56.7118 128.594 57.1441C127.827 57.5448 127.242 57.5616 127.144 57.5612L127.189 41.5612ZM116.373 47.6445C114.757 50.5461 114.25 53.7596 114.242 56.7423L130.242 56.818C130.244 56.1853 130.3 55.7767 130.349 55.5464C130.398 55.3209 130.428 55.319 130.355 55.4497L116.373 47.6445ZM140.449 58.0948C141.419 58.0994 143.614 58.3576 145.507 60.2642C147.399 62.1708 147.641 64.3684 147.638 65.3379L131.638 65.2622C131.634 66.759 132.006 69.3528 134.162 71.5243C136.317 73.6958 138.908 74.0877 140.404 74.0948L140.449 58.0948ZM147.638 65.3379L147.685 48.463L131.685 48.3873L131.638 65.2622L147.638 65.3379ZM147.685 48.463C147.682 49.4325 147.428 51.6278 145.526 53.5164C143.623 55.405 141.425 55.6424 140.456 55.6378L140.501 39.6379C139.004 39.6308 136.411 39.9982 134.244 42.1492C132.076 44.3002 131.689 46.8904 131.685 48.3873L147.685 48.463ZM140.456 55.6378L141.968 55.645L142.012 39.645L140.501 39.6379L140.456 55.6378ZM141.968 55.645C140.998 55.6404 138.802 55.3822 136.91 53.4756C135.018 51.5691 134.776 49.3714 134.779 48.4019L150.779 48.4776C150.783 46.9808 150.411 44.387 148.255 42.2155C146.1 40.044 143.509 39.6521 142.012 39.645L141.968 55.645ZM134.779 48.4019L134.732 65.2768L150.732 65.3526L150.779 48.4776L134.779 48.4019ZM134.732 65.2768C134.735 64.3074 134.988 62.112 136.891 60.2234C138.794 58.3348 140.991 58.0974 141.961 58.102L141.916 74.1019C143.413 74.109 146.006 73.7417 148.173 71.5906C150.341 69.4396 150.727 66.8494 150.732 65.3526L134.732 65.2768ZM141.961 58.102L140.449 58.0948L140.404 74.0948L141.916 74.1019L141.961 58.102ZM140.51 36.2981C141.479 36.3026 143.675 36.5608 145.568 38.4674C147.46 40.374 147.701 42.5716 147.699 43.5411L131.699 43.4654C131.695 44.9622 132.067 47.556 134.222 49.7275C136.378 51.899 138.969 52.2909 140.465 52.298L140.51 36.2981ZM147.699 43.5411L147.703 42.0294L131.703 41.9537L131.699 43.4654L147.699 43.5411ZM147.703 42.0294C147.7 42.9989 147.446 45.1942 145.543 47.0828C143.641 48.9714 141.443 49.2088 140.474 49.2043L140.519 33.2043C139.022 33.1972 136.429 33.5646 134.262 35.7156C132.094 37.8667 131.707 40.4569 131.703 41.9537L147.703 42.0294ZM140.474 49.2043L141.986 49.2114L142.03 33.2115L140.519 33.2043L140.474 49.2043ZM141.986 49.2114C141.016 49.2068 138.82 48.9486 136.928 47.0421C135.036 45.1355 134.794 42.9378 134.797 41.9683L150.797 42.044C150.801 40.5472 150.429 37.9534 148.273 35.7819C146.118 33.6104 143.527 33.2186 142.03 33.2115L141.986 49.2114ZM134.797 41.9683L134.793 43.48L150.793 43.5558L150.797 42.044L134.797 41.9683ZM134.793 43.48C134.795 42.5106 135.049 40.3152 136.952 38.4266C138.855 36.538 141.052 36.3006 142.022 36.3052L141.977 52.3051C143.474 52.3122 146.067 51.9449 148.234 49.7938C150.401 47.6428 150.788 45.0526 150.793 43.5558L134.793 43.48ZM142.022 36.3052L140.51 36.2981L140.465 52.298L141.977 52.3051L142.022 36.3052ZM148.804 50.0855L142.447 45.2157L142.442 45.2221L148.804 50.0855ZM159.425 48.4482L154.898 55.035L154.942 55.0656L154.987 55.0956L159.425 48.4482ZM161.599 50.5152L154.829 54.7636L154.833 54.7709L154.838 54.7782L161.599 50.5152ZM161.438 51.4461L165.783 58.1718L165.821 58.1478L165.857 58.1234L161.438 51.4461ZM160.329 52.1615L155.984 45.4358L155.871 45.509L155.76 45.586L160.329 52.1615ZM159.276 51.6819L166.071 47.474L166.063 47.4608L166.055 47.4476L159.276 51.6819ZM157.838 50.2864L153.533 57.0208L153.562 57.0393L153.591 57.0576L157.838 50.2864ZM158.03 63.4535L162.651 69.9927L162.688 69.967L162.724 69.9409L158.03 63.4535ZM159.546 61.8259L152.557 57.9203L152.537 57.9557L152.518 57.9914L159.546 61.8259ZM160.585 61.3562L156.419 68.1781L156.442 68.192L156.465 68.2057L160.585 61.3562ZM161.76 62.0649L165.895 55.2244L165.888 55.2199L165.88 55.2153L161.76 62.0649ZM161.916 63.0148L155.017 58.9512L155.011 58.9612L161.916 63.0148ZM159.906 65.1323L165.157 71.1778L165.162 71.1736L159.906 65.1323ZM148.765 63.7436L142.362 68.5266L142.379 68.5499L142.397 68.5731L148.765 63.7436ZM154.745 56.934C154.749 55.5253 155.078 55.0626 155.165 54.9489L142.442 45.2221C139.8 48.6814 138.757 52.7591 138.746 56.8583L154.745 56.934ZM155.16 54.9552C155.1 55.0343 155.006 55.1349 154.88 55.2327C154.754 55.3303 154.637 55.3931 154.555 55.4282C154.394 55.4965 154.499 55.4054 155.064 55.4081L155.109 39.4082C150.464 39.3862 145.706 40.9574 142.447 45.2157L155.16 54.9552ZM155.064 55.4081C155.302 55.4092 155.477 55.4209 155.595 55.4334C155.713 55.446 155.759 55.4578 155.744 55.4544C155.725 55.4498 155.377 55.3649 154.898 55.035L163.953 41.8614C161.07 39.8772 157.764 39.4207 155.109 39.4082L155.064 55.4081ZM154.987 55.0956C155.186 55.2289 155.246 55.2899 155.217 55.2622C155.188 55.2351 155.025 55.0757 154.829 54.7636L168.37 46.2668C167.118 44.2764 165.416 42.8393 163.864 41.8009L154.987 55.0956ZM154.838 54.7782C154.376 54.0471 153.423 52.187 153.86 49.6622C154.323 46.9813 156.012 45.4346 157.019 44.7687L165.857 58.1234C167.218 57.2248 169.109 55.4066 169.626 52.4154C170.116 49.5803 169.067 47.3711 168.36 46.2521L154.838 54.7782ZM157.094 44.7203L155.984 45.4358L164.674 58.8873L165.783 58.1718L157.094 44.7203ZM155.76 45.586C156.518 45.0601 157.643 44.5007 159.095 44.3261C160.592 44.1462 161.977 44.4317 163.105 44.9451C165.077 45.8431 165.945 47.2699 166.071 47.474L152.48 55.8898C152.957 56.6581 154.175 58.4469 156.498 59.5047C159.572 60.9044 162.723 60.2468 164.898 58.7371L155.76 45.586ZM166.055 47.4476C164.986 45.7393 163.578 44.4533 162.086 43.5153L153.591 57.0576C153.338 56.8989 152.889 56.5432 152.496 55.9163L166.055 47.4476ZM162.144 43.5521C159.641 41.9492 156.903 41.7018 155.102 41.6933L155.058 57.6933C155.279 57.6943 155.242 57.7138 155.025 57.6671C154.816 57.6222 154.239 57.4732 153.533 57.0208L162.144 43.5521ZM155.102 41.6933C151.227 41.675 147.486 43.2462 144.939 46.6512L157.758 56.2508C157.475 56.6296 157.006 57.0628 156.364 57.3655C155.744 57.6574 155.248 57.6942 155.058 57.6933L155.102 41.6933ZM144.939 46.6512C142.543 49.8548 142.024 53.7394 142.015 56.8737L158.015 56.9494C158.017 56.1664 158.091 55.7533 158.125 55.613C158.159 55.4748 158.11 55.7804 157.758 56.2508L144.939 46.6512ZM142.015 56.8737C142.006 60.008 142.504 63.8974 144.882 67.1236L157.754 57.6456C158.103 58.1193 158.151 58.4254 158.118 58.2868C158.084 58.1463 158.013 57.7325 158.015 56.9494L142.015 56.8737ZM144.882 67.1236C147.41 70.5526 151.142 72.1592 155.017 72.1776L155.062 56.1776C155.252 56.1785 155.748 56.22 156.366 56.5177C157.007 56.8266 157.473 57.2642 157.754 57.6456L144.882 67.1236ZM155.017 72.1776C157.151 72.1877 160.052 71.8268 162.651 69.9927L153.409 56.9142C154.036 56.4713 154.585 56.2936 154.866 56.2257C155.137 56.16 155.229 56.1784 155.062 56.1776L155.017 72.1776ZM162.724 69.9409C164.118 68.9337 165.548 67.5469 166.575 65.6604L152.518 57.9914C152.908 57.2737 153.328 56.972 153.336 56.9661L162.724 69.9409ZM166.536 65.7315C166.353 66.0581 165.456 67.6315 163.344 68.5866C162.174 69.116 160.83 69.3556 159.453 69.2058C158.133 69.0622 157.106 68.5984 156.419 68.1781L164.75 54.5342C162.787 53.3329 159.794 52.619 156.727 54.0063C154.269 55.1179 153.045 57.0443 152.557 57.9203L166.536 65.7315ZM156.465 68.2057L157.64 68.9144L165.88 55.2153L164.705 54.5066L156.465 68.2057ZM157.625 68.9053C156.395 68.16 154.621 66.5082 154.168 63.7397C153.769 61.3056 154.668 59.545 155.017 58.9512L168.815 67.0785C169.411 66.064 170.408 63.9346 169.957 61.184C169.452 58.0987 167.477 56.1823 165.895 55.2244L157.625 68.9053ZM155.011 58.9612C155.1 58.8089 155.179 58.6909 155.236 58.6092C155.294 58.5266 155.34 58.4672 155.368 58.4322C155.421 58.3664 155.434 58.3565 155.385 58.4076C155.339 58.4559 155.258 58.5388 155.13 58.6586C155.004 58.7773 154.846 58.921 154.65 59.0909L165.162 71.1736C166.207 70.2646 167.798 68.8134 168.821 67.0685L155.011 58.9612ZM154.655 59.0868C155.226 58.5912 155.707 58.4431 155.792 58.4202C155.835 58.4084 155.801 58.4212 155.672 58.4358C155.543 58.4504 155.341 58.4641 155.056 58.4628L155.011 74.4627C158.041 74.4771 161.993 73.925 165.157 71.1778L154.655 59.0868ZM155.056 58.4628C154.485 58.4601 154.374 58.3676 154.529 58.4348C154.609 58.4695 154.724 58.5322 154.85 58.6307C154.976 58.7295 155.071 58.8319 155.134 58.9141L142.397 68.5731C145.639 72.8438 150.385 74.4408 155.011 74.4627L155.056 58.4628ZM155.169 58.9606C155.067 58.8242 154.741 58.3404 154.745 56.934L138.746 56.8583C138.734 60.9596 139.755 65.0408 142.362 68.5266L155.169 58.9606ZM175.908 44.0789L175.931 36.0789L167.931 36.0411L167.908 44.0411L175.908 44.0789ZM172.533 44.0629L180.533 44.1008L180.556 36.1008L172.556 36.063L172.533 44.0629ZM164.944 36.027C165.509 36.0296 167.418 36.1217 169.281 37.6581C171.45 39.4473 171.961 41.8286 171.957 43.2692L155.958 43.1935C155.952 45.1614 156.624 47.939 159.114 49.9934C161.299 51.795 163.691 52.0212 164.9 52.0269L164.944 36.027ZM171.957 43.2692L171.961 41.8278L155.962 41.7521L155.958 43.1935L171.957 43.2692ZM171.961 41.8278C171.957 43.2684 171.433 45.6448 169.253 47.4134C167.382 48.9322 165.473 49.0061 164.908 49.0035L164.953 33.0035C163.744 32.9978 161.351 33.2013 159.156 34.9822C156.654 37.013 155.967 39.7842 155.962 41.7521L171.961 41.8278ZM164.908 49.0035L183.506 49.0915L183.55 33.0915L164.953 33.0035L164.908 49.0035ZM183.506 49.0915C182.941 49.0888 181.032 48.9968 179.169 47.4604C177 45.6711 176.489 43.2898 176.493 41.8492L192.492 41.925C192.498 39.957 191.826 37.1795 189.336 35.125C187.151 33.3234 184.759 33.0973 183.55 33.0915L183.506 49.0915ZM176.493 41.8492L176.489 43.2906L192.488 43.3664L192.492 41.925L176.493 41.8492ZM176.489 43.2906C176.493 41.8501 177.017 39.4737 179.197 37.705C181.068 36.1863 182.977 36.1123 183.542 36.115L183.497 52.1149C184.706 52.1206 187.099 51.9171 189.294 50.1362C191.796 48.1054 192.483 45.3343 192.488 43.3664L176.489 43.2906ZM183.542 36.115L175.931 36.0789L175.886 52.0789L183.497 52.1149L183.542 36.115ZM167.908 44.0411L167.849 65.2578L183.849 65.3335L183.908 44.1168L167.908 44.0411ZM167.849 65.2578C167.851 64.5255 168.007 62.484 169.723 60.6103C171.571 58.5927 173.843 58.2529 174.99 58.2583L174.945 74.2582C176.678 74.2664 179.39 73.7676 181.532 71.4291C183.541 69.2345 183.845 66.7103 183.849 65.3335L167.849 65.2578ZM174.99 58.2583L173.373 58.2506L173.328 74.2506L174.945 74.2582L174.99 58.2583ZM173.373 58.2506C174.52 58.2561 176.79 58.6173 178.626 60.6524C180.332 62.5423 180.476 64.5853 180.474 65.3175L164.474 65.2418C164.47 66.6186 164.76 69.1457 166.757 71.3591C168.886 73.7179 171.595 74.2424 173.328 74.2506L173.373 58.2506ZM180.474 65.3175L180.533 44.1008L164.533 44.0251L164.474 65.2418L180.474 65.3175ZM172.556 36.063L164.944 36.027L164.9 52.0269L172.511 52.0629L172.556 36.063ZM187.368 63.4165L182.295 69.5927L182.324 69.6164L182.353 69.6398L187.368 63.4165ZM193.592 63.0065L199.612 68.2864L199.629 68.2672L199.646 68.248L193.592 63.0065ZM194.801 64.1548L202.801 64.1927L202.824 56.1927L194.824 56.1549L194.801 64.1548ZM194.731 64.1545L194.753 56.1545L191.198 56.1377L188.808 58.7656L194.731 64.1545ZM184.552 64.8095L178.249 69.725L178.261 69.7399L178.273 69.7549L184.552 64.8095ZM191.141 59.9011L191.173 48.6688L175.173 48.5931L175.142 59.8254L191.141 59.9011ZM191.173 48.6688C191.17 49.6383 190.916 51.8336 189.013 53.7222C187.11 55.6108 184.913 55.8482 183.944 55.8436L183.988 39.8437C182.492 39.8366 179.899 40.204 177.731 42.355C175.564 44.506 175.177 47.0962 175.173 48.5931L191.173 48.6688ZM183.944 55.8436L185.455 55.8508L185.5 39.8508L183.988 39.8437L183.944 55.8436ZM185.455 55.8508C184.486 55.8462 182.29 55.588 180.398 53.6814C178.506 51.7748 178.264 49.5772 178.267 48.6077L194.267 48.6834C194.271 47.1866 193.898 44.5928 191.743 42.4213C189.588 40.2498 186.997 39.8579 185.5 39.8508L185.455 55.8508ZM178.267 48.6077L178.238 58.9963L194.238 59.072L194.267 48.6834L178.267 48.6077ZM178.238 58.9963C178.233 60.5108 178.346 62.197 178.769 63.8364C179.169 65.3863 180.069 67.7629 182.295 69.5927L192.441 57.2403C193.192 57.8581 193.641 58.5126 193.892 58.9729C194.138 59.4231 194.233 59.7581 194.262 59.8684C194.308 60.0471 194.235 59.8545 194.238 59.072L178.238 58.9963ZM182.353 69.6398C184.74 71.5653 187.524 72.3314 190.173 72.3439L190.218 56.344C190.379 56.3448 190.704 56.3688 191.125 56.507C191.559 56.6496 191.996 56.8809 192.383 57.1933L182.353 69.6398ZM190.173 72.3439C193.375 72.3591 196.951 71.3223 199.612 68.2864L187.571 57.7266C188.031 57.2019 188.613 56.8049 189.208 56.5704C189.764 56.3516 190.151 56.3437 190.218 56.344L190.173 72.3439ZM199.646 68.248C202.369 65.1009 202.775 61.0835 202.782 58.3742L186.783 58.2985C186.782 58.6159 186.767 58.8457 186.75 58.9994C186.734 59.155 186.719 59.2029 186.728 59.1655C186.738 59.1261 186.897 58.5058 187.538 57.7651L199.646 68.248ZM202.782 58.3742L202.809 48.7238L186.81 48.6481L186.783 58.2985L202.782 58.3742ZM202.809 48.7238C202.807 49.6933 202.553 51.8886 200.65 53.7773C198.747 55.6659 196.55 55.9033 195.58 55.8987L195.625 39.8987C194.128 39.8917 191.535 40.259 189.368 42.4101C187.201 44.5611 186.814 47.1513 186.81 48.6481L202.809 48.7238ZM195.58 55.8987L197.092 55.9058L197.137 39.9059L195.625 39.8987L195.58 55.8987ZM197.092 55.9058C196.123 55.9012 193.927 55.6431 192.035 53.7365C190.142 51.8299 189.901 49.6322 189.903 48.6628L205.903 48.7385C205.907 47.2417 205.535 44.6479 203.38 42.4764C201.225 40.3049 198.634 39.913 197.137 39.9059L197.092 55.9058ZM189.903 48.6628L189.856 65.5377L205.856 65.6134L205.903 48.7385L189.903 48.6628ZM189.856 65.5377C189.859 64.5682 190.113 62.3729 192.016 60.4843C193.919 58.5957 196.116 58.3583 197.085 58.3629L197.041 74.3628C198.537 74.3699 201.13 74.0025 203.298 71.8515C205.465 69.7004 205.852 67.1102 205.856 65.6134L189.856 65.5377ZM197.085 58.3629L195.609 58.3559L195.564 74.3558L197.041 74.3628L197.085 58.3629ZM195.609 58.3559C196.578 58.3605 198.774 58.6186 200.666 60.5252C202.559 62.4318 202.8 64.6295 202.797 65.5989L186.798 65.5232C186.793 67.02 187.166 69.6138 189.321 71.7853C191.476 73.9568 194.067 74.3487 195.564 74.3558L195.609 58.3559ZM202.797 65.5989L202.801 64.1927L186.802 64.117L186.798 65.5232L202.797 65.5989ZM194.824 56.1549L194.753 56.1545L194.709 72.1545L194.779 72.1548L194.824 56.1549ZM188.808 58.7656C188.723 58.859 188.685 58.8853 188.701 58.8728C188.72 58.8587 188.787 58.8115 188.902 58.7583L195.628 73.2892C197.631 72.3652 199.293 71.04 200.654 69.5434L188.808 58.7656ZM188.902 58.7583C189.132 58.6524 189.286 58.6198 189.319 58.6135C189.35 58.6079 189.275 58.6247 189.069 58.6238L189.024 74.6237C191.117 74.6336 193.415 74.3098 195.628 73.2892L188.902 58.7583ZM189.069 58.6238C188.795 58.6225 188.958 58.5803 189.367 58.7451C189.835 58.9341 190.388 59.3027 190.83 59.8641L178.273 69.7549C181.211 73.4822 185.431 74.6067 189.024 74.6237L189.069 58.6238ZM190.854 59.894C190.965 60.0359 191.045 60.1698 191.1 60.2809C191.154 60.3904 191.177 60.4637 191.183 60.4848C191.192 60.5182 191.14 60.3509 191.141 59.9011L175.142 59.8254C175.133 63.0671 175.861 66.666 178.249 69.725L190.854 59.894ZM205.948 50.8481L197.948 50.8102L197.926 58.8102L205.926 58.8481L205.948 50.8481ZM206.018 50.8484L205.996 58.8484L210.796 58.8711L213.067 54.6465L206.018 50.8484ZM212.443 47.8729L209.305 55.2259L209.405 55.2688L209.507 55.309L212.443 47.8729ZM212.74 48.4017L205.054 46.1675L205.049 46.1861L205.043 46.2047L212.74 48.4017ZM212.332 49.8412L204.635 47.6442L204.632 47.6539L204.63 47.6636L212.332 49.8412ZM211.874 50.0851L210.283 57.9223L210.319 57.9297L210.355 57.9367L211.874 50.0851ZM207.316 51.8038L213.784 56.5251L213.794 56.5106L213.805 56.496L207.316 51.8038ZM203.659 58.394C204.629 58.3986 206.825 58.6567 208.717 60.5633C210.609 62.4699 210.851 64.6676 210.848 65.637L194.848 65.5613C194.844 67.0581 195.217 69.6519 197.372 71.8234C199.527 73.9949 202.118 74.3868 203.615 74.3939L203.659 58.394ZM210.848 65.637L210.895 48.7621L194.895 48.6864L194.848 65.5613L210.848 65.637ZM210.895 48.7621C210.893 49.7316 210.639 51.9269 208.736 53.8155C206.833 55.7041 204.636 55.9415 203.666 55.9369L203.711 39.937C202.214 39.9299 199.621 40.2973 197.454 42.4483C195.286 44.5994 194.9 47.1896 194.895 48.6864L210.895 48.7621ZM203.666 55.9369L205.143 55.9439L205.187 39.944L203.711 39.937L203.666 55.9369ZM205.143 55.9439C204.173 55.9393 201.978 55.6812 200.085 53.7746C198.193 51.868 197.951 49.6703 197.954 48.7009L213.954 48.7766C213.958 47.2798 213.586 44.686 211.43 42.5145C209.275 40.343 206.684 39.9511 205.187 39.944L205.143 55.9439ZM197.954 48.7009L197.948 50.8102L213.948 50.8859L213.954 48.7766L197.954 48.7009ZM205.926 58.8481L205.996 58.8484L206.041 42.8484L205.97 42.8481L205.926 58.8481ZM213.067 54.6465C213.203 54.3922 213.115 54.6679 212.614 55.0192L203.408 41.9152C201.381 43.3374 199.964 45.2006 198.97 47.0503L213.067 54.6465ZM212.614 55.0192C211.752 55.6246 210.99 55.6728 210.839 55.6721L210.884 39.6721C208.459 39.6606 205.798 40.2389 203.408 41.9152L212.614 55.0192ZM210.839 55.6721C211.01 55.6729 210.985 55.6815 210.826 55.6612C210.741 55.6503 210.57 55.6254 210.34 55.5708C210.119 55.5183 209.752 55.4173 209.305 55.2259L215.58 40.52C213.658 39.6965 211.686 39.6759 210.884 39.6721L210.839 55.6721ZM209.507 55.309C208.655 54.9712 206.918 54.0777 205.748 51.9963C204.482 49.7452 204.662 47.5251 205.054 46.1675L220.426 50.6358C220.889 49.0325 221.055 46.6014 219.69 44.174C218.42 41.9164 216.5 40.8814 215.379 40.4368L209.507 55.309ZM205.043 46.2047L204.635 47.6442L220.028 52.0381L220.437 50.5987L205.043 46.2047ZM204.63 47.6636C205.024 46.2613 206.075 44.2374 208.4 42.9985C210.531 41.8627 212.498 42.0588 213.393 42.2335L210.355 57.9367C211.496 58.1595 213.662 58.3389 215.946 57.1218C218.423 55.8016 219.581 53.6317 220.034 52.0188L204.63 47.6636ZM213.465 42.2479C212.614 42.0737 211.699 41.9612 210.737 41.9566L210.692 57.9565C210.456 57.9554 210.314 57.9286 210.283 57.9223L213.465 42.2479ZM210.737 41.9566C206.462 41.9364 203.03 44.063 200.828 47.1115L213.805 56.496C213.681 56.6683 213.328 57.085 212.668 57.4437C211.978 57.8188 211.266 57.9593 210.692 57.9565L210.737 41.9566ZM200.849 47.0825C198.635 50.1194 197.975 53.648 197.967 56.8045L213.966 56.8802C213.968 56.3557 214.025 56.1097 214.036 56.0676C214.043 56.0407 213.993 56.238 213.784 56.5251L200.849 47.0825ZM197.967 56.8045L197.942 65.576L213.942 65.6517L213.966 56.8802L197.967 56.8045ZM197.942 65.576C197.945 64.6065 198.199 62.4112 200.102 60.5225C202.004 58.6339 204.202 58.3965 205.171 58.4011L205.126 74.4011C206.623 74.4081 209.216 74.0408 211.384 71.8897C213.551 69.7387 213.938 67.1485 213.942 65.6517L197.942 65.576ZM205.171 58.4011L203.659 58.394L203.615 74.3939L205.126 74.4011L205.171 58.4011ZM216.556 47.9979L216.533 55.9978L224.533 56.0357L224.556 48.0357L216.556 47.9979ZM218.156 41.3433L222.726 47.9188L222.75 47.9019L222.774 47.8848L218.156 41.3433ZM223.731 40.3677L222.394 48.2526L222.409 48.2551L222.424 48.2576L223.731 40.3677ZM225.505 40.921L222.426 48.2986L222.441 48.3049L222.455 48.311L225.505 40.921ZM225.732 41.4846L233.171 44.4421L233.174 44.435L225.732 41.4846ZM225.183 42.8707L232.603 45.8769L232.612 45.8526L232.622 45.8282L225.183 42.8707ZM224.568 43.0084L221.237 50.2756L221.267 50.2897L221.298 50.3035L224.568 43.0084ZM223.619 42.6875L221.432 50.3784L221.544 50.4106L221.657 50.4394L223.619 42.6875ZM220.296 43.2167L214.438 37.7566L214.401 37.7965L214.364 37.8369L220.296 43.2167ZM219.649 48.0125L211.649 47.9746L211.627 55.9746L219.627 56.0125L219.649 48.0125ZM219.643 50.3328L219.665 42.3328L211.665 42.295L211.643 50.295L219.643 50.3328ZM216.549 50.3182L224.549 50.356L224.571 42.3561L216.571 42.3182L216.549 50.3182ZM214.691 42.3093C215.243 42.3119 217.129 42.3906 219.005 43.8611C221.261 45.6305 221.884 48.0881 221.879 49.7282L205.879 49.6524C205.873 51.7026 206.627 54.4685 209.146 56.4442C211.285 58.1211 213.566 58.3041 214.646 58.3092L214.691 42.3093ZM221.879 49.7282L221.882 48.6383L205.882 48.5626L205.879 49.6524L221.879 49.7282ZM221.882 48.6383C221.877 50.2784 221.241 52.73 218.975 54.478C217.092 55.9307 215.205 55.9915 214.652 55.9889L214.697 39.989C213.617 39.9839 211.335 40.1454 209.187 41.8019C206.657 43.7538 205.888 46.5124 205.882 48.5626L221.882 48.6383ZM214.652 55.9889L216.533 55.9978L216.578 39.9979L214.697 39.989L214.652 55.9889ZM224.556 48.0357L224.563 45.4166L208.563 45.3409L208.556 47.96L224.556 48.0357ZM224.563 45.4166C224.564 45.106 224.612 45.3342 224.407 45.8525C224.168 46.4575 223.648 47.2785 222.726 47.9188L213.587 34.7677C209.441 37.6445 208.572 42.1904 208.563 45.3409L224.563 45.4166ZM222.774 47.8848C222.628 47.988 222.432 48.0898 222.207 48.1585C221.986 48.2261 221.823 48.2357 221.758 48.2354L221.803 32.2354C218.871 32.2216 216.023 33.0502 213.538 34.8017L222.774 47.8848ZM221.758 48.2354C222.032 48.2367 222.225 48.2447 222.349 48.2531C222.479 48.2619 222.483 48.2679 222.394 48.2526L225.068 32.4828C223.96 32.2927 222.817 32.2402 221.803 32.2354L221.758 48.2354ZM222.424 48.2576C222.334 48.2426 222.269 48.228 222.232 48.2188C222.194 48.2096 222.178 48.2042 222.184 48.2061C222.189 48.2078 222.213 48.2153 222.255 48.2308C222.296 48.2462 222.353 48.2683 222.426 48.2986L228.585 33.5434C227.563 33.1153 226.352 32.6979 225.039 32.4777L222.424 48.2576ZM222.455 48.311C221.362 47.8579 219.367 46.68 218.335 44.1179C217.332 41.6263 217.915 39.4856 218.29 38.5342L233.174 44.435C233.656 43.2145 234.254 40.8454 233.175 38.166C232.068 35.4159 229.906 34.0908 228.555 33.531L222.455 48.311ZM218.293 38.5271L217.744 39.9131L232.622 45.8282L233.171 44.4421L218.293 38.5271ZM217.764 39.8644C218.475 38.103 220.205 35.9427 223.198 35.2733C225.562 34.7443 227.349 35.494 227.837 35.7133L221.298 50.3035C222.102 50.6649 224.149 51.4627 226.719 50.8878C229.917 50.1725 231.797 47.8723 232.603 45.8769L217.764 39.8644ZM227.898 35.7412C227.074 35.362 226.269 35.1108 225.581 34.9356L221.657 50.4394C221.677 50.4443 221.65 50.4383 221.586 50.4168C221.524 50.3959 221.402 50.3517 221.237 50.2756L227.898 35.7412ZM225.807 34.9966C224.653 34.6664 223.513 34.5287 222.429 34.5236L222.385 50.5235C222.167 50.5225 221.836 50.4941 221.432 50.3784L225.807 34.9966ZM222.429 34.5236C220.387 34.5139 217.033 34.9713 214.438 37.7566L226.153 48.6768C224.427 50.5287 222.482 50.524 222.385 50.5235L222.429 34.5236ZM214.364 37.8369C212.929 39.4195 212.321 41.1744 212.036 42.3692C211.739 43.6149 211.658 44.8301 211.655 45.8653L227.655 45.941C227.656 45.6519 227.684 45.7573 227.6 46.1075C227.529 46.4068 227.239 47.4806 226.227 48.5965L214.364 37.8369ZM211.655 45.8653L211.649 47.9746L227.649 48.0504L227.655 45.941L211.655 45.8653ZM219.627 56.0125L222.844 56.0277L222.888 40.0278L219.672 40.0125L219.627 56.0125ZM222.844 56.0277C222.291 56.0251 220.405 55.9464 218.53 54.4759C216.274 52.7065 215.651 50.2489 215.655 48.6088L231.655 48.6846C231.661 46.6344 230.907 43.8685 228.388 41.8928C226.25 40.2159 223.968 40.0329 222.888 40.0278L222.844 56.0277ZM215.655 48.6088L215.652 49.6987L231.652 49.7744L231.655 48.6846L215.655 48.6088ZM215.652 49.6987C215.657 48.0586 216.293 45.607 218.559 43.859C220.443 42.4063 222.329 42.3454 222.882 42.3481L222.837 58.348C223.917 58.3531 226.2 58.1916 228.347 56.5351C230.877 54.5832 231.647 51.8246 231.652 49.7744L215.652 49.6987ZM222.882 42.3481L219.665 42.3328L219.621 58.3328L222.837 58.348L222.882 42.3481ZM211.643 50.295L211.6 65.6406L227.6 65.7163L227.643 50.3707L211.643 50.295ZM211.6 65.6406C211.603 64.6711 211.857 62.4758 213.76 60.5872C215.662 58.6986 217.86 58.4612 218.829 58.4658L218.784 74.4657C220.281 74.4728 222.874 74.1054 225.042 71.9544C227.209 69.8033 227.596 67.2131 227.6 65.7163L211.6 65.6406ZM218.829 58.4658L217.317 58.4586L217.273 74.4585L218.784 74.4657L218.829 58.4658ZM217.317 58.4586C218.287 58.4632 220.483 58.7214 222.375 60.6279C224.267 62.5345 224.509 64.7322 224.506 65.7017L208.506 65.626C208.502 67.1228 208.875 69.7166 211.03 71.8881C213.185 74.0596 215.776 74.4515 217.273 74.4585L217.317 58.4586ZM224.506 65.7017L224.549 50.356L208.549 50.2803L208.506 65.626L224.506 65.7017ZM216.571 42.3182L214.691 42.3093L214.646 58.3092L216.527 58.3181L216.571 42.3182Z" fill="#080909" mask="url(#path-2-outside-1_60_3)"/>
<defs>
<linearGradient id="paint0_linear_60_3" x1="248.55" y1="79.2" x2="186.225" y2="10.1691" gradientUnits="userSpaceOnUse">
<stop stop-color="#D51111"/>
<stop offset="1" stop-color="#F19494"/>
</linearGradient>
</defs>
</svg>
